<?xml version="1.0" standalone="no"?>
<!DOCTYPE svg PUBLIC "-//W3C//DTD SVG 20010904//EN"
 "http://www.w3.org/TR/2001/REC-SVG-20010904/DTD/svg10.dtd">
<svg version="1.0" xmlns="http://www.w3.org/2000/svg"
 width="200.000000pt" height="200.000000pt" viewBox="0 0 200.000000 200.000000"
 preserveAspectRatio="xMidYMid meet">

<g transform="translate(0.000000,200.000000) scale(0.100000,-0.100000)"
fill="#000000" stroke="none">
<path d="M519 1824 c-118 -75 -220 -141 -227 -148 -9 -9 0 -19 44 -44 31 -18
62 -32 70 -32 8 0 93 53 190 118 l175 117 -6 48 c-6 53 -14 77 -24 77 -4 0
-104 -61 -222 -136z"/>
<path d="M630 1689 c-119 -81 -176 -126 -178 -141 -6 -35 27 -105 68 -142 79
-71 187 -73 266 -4 90 79 100 209 22 295 l-20 21 41 28 c23 14 41 28 41 30 0
4 -57 34 -62 34 -2 -1 -82 -55 -178 -121z"/>
<path d="M618 1318 c-46 -12 -95 -65 -104 -113 -5 -26 10 -100 58 -293 53
-211 67 -257 81 -257 10 0 67 40 127 89 117 96 121 102 101 173 l-10 33 37
-16 c34 -14 50 -13 197 7 186 25 217 36 245 81 24 39 25 69 5 108 -34 65 -61
70 -255 44 l-125 -17 -130 80 c-139 86 -169 97 -227 81z"/>
<path d="M1447 1090 c-131 -132 -227 -237 -227 -248 0 -25 20 -42 50 -42 19 0
73 50 248 229 130 135 222 237 222 248 0 25 -19 43 -45 43 -15 0 -93 -72 -248
-230z"/>
<path d="M270 1281 c-16 -16 -32 -40 -36 -55 -8 -32 200 -990 222 -1024 31
-48 62 -52 366 -52 322 0 337 3 372 73 16 33 17 45 7 77 -6 22 -23 48 -38 59
-24 20 -39 21 -270 21 -212 0 -244 2 -250 16 -3 8 -47 205 -98 437 -90 410
-93 422 -124 449 -45 40 -111 40 -151 -1z"/>
<path d="M805 646 c-66 -53 -123 -103 -127 -110 -12 -21 0 -42 40 -73 l37 -28
222 -3 223 -3 182 -175 c101 -97 197 -184 213 -195 84 -53 189 18 171 117 -6
29 -50 82 -233 277 -145 156 -238 248 -262 259 -26 11 -80 18 -191 23 l-155 7
-120 -96z"/>
</g>
</svg>
